<svg id="Artwork" height="512" viewBox="0 0 512 512" width="512" xmlns="http://www.w3.org/2000/svg"><path d="m59.21 215.34-27.01 27.09h27.01z" fill="#c95623"/><path d="m452.73 215.34 27.02 27.09h-27.02z" fill="#c95623"/><path d="m453.06 109.29a10 10 0 0 0 -2.93-7.07l-99.42-99.42a10 10 0 0 0 -7.07-2.93h-274.42a10 10 0 0 0 -10 10v492a10 10 0 0 0 10 10h373.84a10 10 0 0 0 10-10z" fill="#f1f1f1"/><path d="m452.73 106.8a9.88 9.88 0 0 0 -2.6-4.58l-99.42-99.42a10 10 0 0 0 -7.07-2.93v94.92a12 12 0 0 0 12 12z" fill="#ccc"/><path d="m452.73 106.8h-97.08a12 12 0 0 1 -12-12v10.15c0 6.63 4.12 15 12.38 15h97v-10.66a6.46 6.46 0 0 0 -.3-2.49z" fill="#e8e8e8"/><path d="m472.11 412.17h-432.22a10 10 0 0 1 -10-10v-153.34a10 10 0 0 1 10-10h432.22a10 10 0 0 1 10 10v153.33a10 10 0 0 1 -10 10.01z" fill="#ff732b"/><path d="m59.21 412.17h393.85v12.97h-393.85z" fill="#e0e0e0"/><g fill="#fff"><path d="m135.64 365.9a8.51 8.51 0 0 1 -2.2-6.3v-53.53a7.68 7.68 0 0 1 8.5-8.5h20.21q11.72 0 20.16 4.25a30.12 30.12 0 0 1 13 12.15q4.5 7.9 4.5 18.81t-4.45 19a29.35 29.35 0 0 1 -12.91 12.16q-8.44 4.2-20.26 4.2h-20.25a8.51 8.51 0 0 1 -6.3-2.24zm25.21-12.6q10.31 0 15.46-5.06t5.15-15.46q0-10.39-5.15-15.4t-15.46-5h-9v40.92z"/><path d="m298.27 298.37a8.74 8.74 0 0 1 5-1.5 8.58 8.58 0 0 1 5.73 2.13 7.13 7.13 0 0 1 2.45 5.7 13.25 13.25 0 0 1 -.8 4l-20.13 54.4a8.07 8.07 0 0 1 -3.65 4.35 11.34 11.34 0 0 1 -5.87 1.55 11 11 0 0 1 -5.8-1.55 8 8 0 0 1 -3.6-4.35l-13-37.1-13.6 37.1a8.52 8.52 0 0 1 -3.7 4.35 10.85 10.85 0 0 1 -5.7 1.55 11 11 0 0 1 -5.8-1.55 8.09 8.09 0 0 1 -3.61-4.35l-20.19-54.43a11.67 11.67 0 0 1 -.7-3.8 7.12 7.12 0 0 1 2.66-5.85 9.41 9.41 0 0 1 6.15-2.15 9.59 9.59 0 0 1 5.15 1.45 7.93 7.93 0 0 1 3.35 4.35l13.71 39.42 14.51-39.42a8.32 8.32 0 0 1 3.25-4.3 8.74 8.74 0 0 1 4.95-1.5 8.36 8.36 0 0 1 8.11 5.9l13.57 40.23 14.29-40.33a8.38 8.38 0 0 1 3.27-4.3z"/><path d="m379.21 330.13a6.53 6.53 0 0 1 2 5v17.4a29.82 29.82 0 0 1 -.75 7.66 7.69 7.69 0 0 1 -2.7 4.15 17.5 17.5 0 0 1 -5.85 2.6 63.57 63.57 0 0 1 -8.66 1.55 76.45 76.45 0 0 1 -8.85.55q-11.5 0-20-4.35a30.23 30.23 0 0 1 -13-12.51q-4.5-8.14-4.5-19.36a39.07 39.07 0 0 1 4.5-19.16 30.75 30.75 0 0 1 12.81-12.55 40.81 40.81 0 0 1 19.41-4.4 44.13 44.13 0 0 1 12.56 1.65 35 35 0 0 1 10.35 5.05 7.73 7.73 0 0 1 2.47 2.59 7.63 7.63 0 0 1 .75 3.6 8.2 8.2 0 0 1 -1.7 5.26 5.08 5.08 0 0 1 -4.05 2.14 7.51 7.51 0 0 1 -2.75-.45 19.44 19.44 0 0 1 -2.95-1.56 34.5 34.5 0 0 0 -7-2.9 26.37 26.37 0 0 0 -7.05-.9q-9.51 0-14.16 5.31t-4.65 16.3q0 11.31 4.85 16.76t14.86 5.44a46.12 46.12 0 0 0 9.51-1v-13.11h-7.21a7.28 7.28 0 0 1 -5.1-1.65 6.92 6.92 0 0 1 0-9.31 7.28 7.28 0 0 1 5.1-1.65h16.55a7.33 7.33 0 0 1 5.21 1.85z"/></g></svg>