<svg height="640pt" viewBox="-70 0 640 640" width="640pt" xmlns="http://www.w3.org/2000/svg"><path d="m334.457031 0h-262.332031c-39.472656 0-72.125 32.484375-72.125 71.957031v496.085938c0 39.472656 32.652344 71.957031 72.125 71.957031h356.058594c39.472656 0 72.117187-32.484375 72.117187-71.957031v-394.074219zm0 0" fill="#00acea"/><path d="m335.269531.488281 165.199219 173.640625h-109.972656c-30.535156 0-55.226563-24.6875-55.226563-55.222656zm0 0" fill="#00efd1"/><g fill="#083863"><path d="m383.835938 511.675781h-267.371094c-8.929688 0-16.238282 7.308594-16.238282 16.242188 0 8.9375 7.308594 16.246093 16.238282 16.246093h267.535156c8.933594 0 16.242188-7.308593 16.242188-16.246093 0-8.933594-7.308594-16.242188-16.40625-16.242188zm0 0"/><path d="m299.859375 436.304688c-14.460937 0-28.101563-5.523438-38.175781-15.59375l-21.601563-21.605469c-6.335937-6.332031-16.570312-6.332031-22.902343 0-6.335938 6.339843-6.335938 16.574219 0 22.90625l21.765624 21.765625c16.40625 16.242187 38.171876 25.015625 61.074219 25.015625 23.066407 0 44.671875-8.933594 61.078125-25.179688 33.460938-33.785156 33.460938-88.6875 0-122.148437l-21.605468-21.605469c-6.332032-6.335937-16.566407-6.335937-22.90625 0-6.332032 6.332031-6.332032 16.566406 0 22.902344l21.605468 21.601562c20.953125 20.957031 20.792969 55.070313 0 76.183594-10.394531 10.234375-23.875 15.757813-38.332031 15.757813zm0 0"/><path d="m161.136719 366.132812c3.25 3.246094 7.3125 4.710938 11.535156 4.710938s8.28125-1.625 11.53125-4.710938c6.335937-6.332031 6.335937-16.566406 0-22.90625l-21.765625-21.765624c-20.957031-20.953126-20.792969-55.066407 0-76.183594 10.066406-10.066406 23.554688-15.589844 38.007812-15.589844 14.457032 0 28.105469 5.523438 38.171876 15.589844l21.609374 21.605468c6.332032 6.335938 16.566407 6.335938 22.898438 0 6.335938-6.335937 6.335938-16.570312 0-22.902343l-21.601562-21.769531c-16.40625-16.246094-38.171876-25.015626-61.078126-25.015626-23.066406 0-44.667968 8.9375-61.074218 25.175782-33.460938 33.789062-33.460938 88.691406 0 122.15625zm0 0"/><path d="m210.679688 293.519531c-6.332032 6.339844-6.332032 16.574219 0 22.90625l55.878906 55.878907c3.246094 3.246093 7.308594 4.710937 11.53125 4.710937s8.285156-1.625 11.535156-4.710937c6.332031-6.332032 6.332031-16.566407 0-22.90625l-55.878906-55.878907c-6.332032-6.332031-16.730469-6.332031-23.066406 0zm0 0"/></g></svg>