<svg width="193" height="175" viewBox="0 0 193 175" fill="none" xmlns="http://www.w3.org/2000/svg">
<path d="M114.182 87.5013L189.332 19.3563C194.223 14.9238 194.223 7.75696 189.332 3.32441C184.444 -1.10814 176.54 -1.10814 171.651 3.32441L96.4989 71.4694L21.3485 3.32441C16.4579 -1.10814 8.55636 -1.10814 3.66799 3.32441C-1.22266 7.75696 -1.22266 14.9238 3.66799 19.3563L78.8183 87.5013L3.66799 155.646C-1.22266 160.079 -1.22266 167.246 3.66799 171.678C6.10416 173.889 9.30736 175 12.5083 175C15.7092 175 18.9101 173.889 21.3485 171.678L96.4989 103.533L171.651 171.678C174.09 173.889 177.291 175 180.492 175C183.693 175 186.894 173.889 189.332 171.678C194.223 167.246 194.223 160.079 189.332 155.646L114.182 87.5013Z" fill="white"/>
</svg>
